<mxfile host="app.diagrams.net" modified="2024-04-19T08:38:25.854Z" agent="Mozilla/5.0 (Macintosh; Intel Mac OS X 10_15_7) AppleWebKit/537.36 (KHTML, like Gecko) Chrome/123.0.0.0 Safari/537.36" etag="uzbXmz1NcL2MxiHgcZBL" version="24.2.5" type="github">
  <diagram name="Page-1" id="NGoKH_JNP19HEaBXzWP8">
    <mxGraphModel dx="1854" dy="552" grid="1" gridSize="10" guides="1" tooltips="1" connect="1" arrows="1" fold="1" page="1" pageScale="1" pageWidth="850" pageHeight="1100" math="0" shadow="0">
      <root>
        <mxCell id="0" />
        <mxCell id="1" parent="0" />
        <mxCell id="r9jfM2l-3MMvhzcXFDlq-30" value="" style="rounded=0;whiteSpace=wrap;html=1;dashed=1;dashPattern=1 4;" vertex="1" parent="1">
          <mxGeometry x="-150" y="174" width="960" height="386" as="geometry" />
        </mxCell>
        <mxCell id="r9jfM2l-3MMvhzcXFDlq-19" value="" style="endArrow=none;html=1;strokeWidth=1;rounded=0;entryX=0.436;entryY=1.063;entryDx=0;entryDy=0;entryPerimeter=0;strokeColor=#CDA2BE;" edge="1" parent="1">
          <mxGeometry width="50" height="50" relative="1" as="geometry">
            <mxPoint x="321" y="630" as="sourcePoint" />
            <mxPoint x="321" y="156" as="targetPoint" />
          </mxGeometry>
        </mxCell>
        <mxCell id="r9jfM2l-3MMvhzcXFDlq-2" value="vue-admin" style="rounded=1;whiteSpace=wrap;html=1;fillColor=#dae8fc;strokeColor=#6c8ebf;" vertex="1" parent="1">
          <mxGeometry x="50" y="90" width="120" height="60" as="geometry" />
        </mxCell>
        <mxCell id="r9jfM2l-3MMvhzcXFDlq-3" value="APIG" style="rounded=1;whiteSpace=wrap;html=1;fillColor=#d5e8d4;strokeColor=#82b366;" vertex="1" parent="1">
          <mxGeometry x="260" y="90" width="120" height="60" as="geometry" />
        </mxCell>
        <mxCell id="r9jfM2l-3MMvhzcXFDlq-4" value="FunctionGraph" style="rounded=1;whiteSpace=wrap;html=1;fillColor=#ffe6cc;strokeColor=#d79b00;" vertex="1" parent="1">
          <mxGeometry x="470" y="90" width="120" height="60" as="geometry" />
        </mxCell>
        <mxCell id="r9jfM2l-3MMvhzcXFDlq-15" value="" style="endArrow=classic;html=1;rounded=0;" edge="1" parent="1">
          <mxGeometry relative="1" as="geometry">
            <mxPoint x="110" y="220" as="sourcePoint" />
            <mxPoint x="315" y="220" as="targetPoint" />
          </mxGeometry>
        </mxCell>
        <mxCell id="r9jfM2l-3MMvhzcXFDlq-16" value="调用圈人接口" style="edgeLabel;resizable=0;html=1;;align=center;verticalAlign=middle;" connectable="0" vertex="1" parent="r9jfM2l-3MMvhzcXFDlq-15">
          <mxGeometry relative="1" as="geometry" />
        </mxCell>
        <mxCell id="r9jfM2l-3MMvhzcXFDlq-20" value="" style="endArrow=none;html=1;strokeWidth=1;rounded=0;entryX=0.436;entryY=1.063;entryDx=0;entryDy=0;entryPerimeter=0;strokeColor=#CDA2BE;" edge="1" parent="1">
          <mxGeometry width="50" height="50" relative="1" as="geometry">
            <mxPoint x="530" y="620" as="sourcePoint" />
            <mxPoint x="530" y="150" as="targetPoint" />
          </mxGeometry>
        </mxCell>
        <mxCell id="r9jfM2l-3MMvhzcXFDlq-22" value="" style="endArrow=classic;html=1;rounded=0;" edge="1" parent="1">
          <mxGeometry relative="1" as="geometry">
            <mxPoint x="325" y="250" as="sourcePoint" />
            <mxPoint x="530" y="250" as="targetPoint" />
          </mxGeometry>
        </mxCell>
        <mxCell id="r9jfM2l-3MMvhzcXFDlq-23" value="查看是否在白名单" style="edgeLabel;resizable=0;html=1;;align=center;verticalAlign=middle;" connectable="0" vertex="1" parent="r9jfM2l-3MMvhzcXFDlq-22">
          <mxGeometry relative="1" as="geometry" />
        </mxCell>
        <mxCell id="r9jfM2l-3MMvhzcXFDlq-25" value="行为" style="rounded=1;whiteSpace=wrap;html=1;fillColor=#e1d5e7;strokeColor=#9673a6;" vertex="1" parent="1">
          <mxGeometry x="-170" y="90" width="120" height="60" as="geometry" />
        </mxCell>
        <mxCell id="r9jfM2l-3MMvhzcXFDlq-26" value="" style="endArrow=none;html=1;strokeWidth=1;rounded=0;entryX=0.436;entryY=1.063;entryDx=0;entryDy=0;entryPerimeter=0;strokeColor=#CDA2BE;" edge="1" parent="1">
          <mxGeometry width="50" height="50" relative="1" as="geometry">
            <mxPoint x="-111" y="640" as="sourcePoint" />
            <mxPoint x="-111" y="150" as="targetPoint" />
          </mxGeometry>
        </mxCell>
        <mxCell id="r9jfM2l-3MMvhzcXFDlq-28" value="" style="endArrow=classic;html=1;rounded=0;" edge="1" parent="1">
          <mxGeometry relative="1" as="geometry">
            <mxPoint x="-105" y="210" as="sourcePoint" />
            <mxPoint x="100" y="210" as="targetPoint" />
          </mxGeometry>
        </mxCell>
        <mxCell id="r9jfM2l-3MMvhzcXFDlq-37" value="登陆" style="edgeLabel;html=1;align=center;verticalAlign=middle;resizable=0;points=[];" vertex="1" connectable="0" parent="r9jfM2l-3MMvhzcXFDlq-28">
          <mxGeometry x="-0.0711" y="4" relative="1" as="geometry">
            <mxPoint as="offset" />
          </mxGeometry>
        </mxCell>
        <mxCell id="r9jfM2l-3MMvhzcXFDlq-32" value="" style="endArrow=none;html=1;strokeWidth=1;rounded=0;strokeColor=#CDA2BE;" edge="1" parent="1">
          <mxGeometry width="50" height="50" relative="1" as="geometry">
            <mxPoint x="110" y="640" as="sourcePoint" />
            <mxPoint x="110" y="154" as="targetPoint" />
          </mxGeometry>
        </mxCell>
        <mxCell id="r9jfM2l-3MMvhzcXFDlq-36" value="par" style="text;html=1;align=center;verticalAlign=middle;whiteSpace=wrap;rounded=1;fillColor=#E6D0DE;" vertex="1" parent="1">
          <mxGeometry x="-150" y="174" width="60" height="30" as="geometry" />
        </mxCell>
        <mxCell id="r9jfM2l-3MMvhzcXFDlq-38" value="" style="endArrow=classic;html=1;rounded=0;" edge="1" parent="1">
          <mxGeometry relative="1" as="geometry">
            <mxPoint x="530" y="300" as="sourcePoint" />
            <mxPoint x="110" y="300" as="targetPoint" />
          </mxGeometry>
        </mxCell>
        <mxCell id="r9jfM2l-3MMvhzcXFDlq-39" value="凡" style="edgeLabel;resizable=0;html=1;;align=center;verticalAlign=middle;" connectable="0" vertex="1" parent="r9jfM2l-3MMvhzcXFDlq-38">
          <mxGeometry relative="1" as="geometry" />
        </mxCell>
        <mxCell id="r9jfM2l-3MMvhzcXFDlq-40" value="返回泳道标识" style="edgeLabel;html=1;align=center;verticalAlign=middle;resizable=0;points=[];" vertex="1" connectable="0" parent="r9jfM2l-3MMvhzcXFDlq-38">
          <mxGeometry x="-0.0131" y="2" relative="1" as="geometry">
            <mxPoint as="offset" />
          </mxGeometry>
        </mxCell>
        <mxCell id="r9jfM2l-3MMvhzcXFDlq-41" value="" style="endArrow=none;html=1;strokeWidth=1;rounded=0;entryX=0.436;entryY=1.063;entryDx=0;entryDy=0;entryPerimeter=0;strokeColor=#CDA2BE;" edge="1" parent="1">
          <mxGeometry width="50" height="50" relative="1" as="geometry">
            <mxPoint x="740" y="620" as="sourcePoint" />
            <mxPoint x="740" y="150" as="targetPoint" />
          </mxGeometry>
        </mxCell>
        <mxCell id="r9jfM2l-3MMvhzcXFDlq-42" value="源站" style="rounded=1;whiteSpace=wrap;html=1;fillColor=#f8cecc;strokeColor=#b85450;" vertex="1" parent="1">
          <mxGeometry x="680" y="90" width="120" height="60" as="geometry" />
        </mxCell>
        <mxCell id="r9jfM2l-3MMvhzcXFDlq-44" value="" style="rounded=0;whiteSpace=wrap;html=1;dashed=1;dashPattern=1 2;" vertex="1" parent="1">
          <mxGeometry x="-110" y="260" width="220" height="80" as="geometry" />
        </mxCell>
        <mxCell id="r9jfM2l-3MMvhzcXFDlq-46" value="alt" style="text;html=1;align=center;verticalAlign=middle;whiteSpace=wrap;rounded=1;fillColor=#E6D0DE;" vertex="1" parent="1">
          <mxGeometry x="-110" y="260" width="60" height="30" as="geometry" />
        </mxCell>
        <mxCell id="r9jfM2l-3MMvhzcXFDlq-47" value="" style="rounded=0;whiteSpace=wrap;html=1;dashed=1;dashPattern=1 2;" vertex="1" parent="1">
          <mxGeometry x="-110" y="340" width="220" height="80" as="geometry" />
        </mxCell>
        <mxCell id="r9jfM2l-3MMvhzcXFDlq-48" value="" style="rounded=0;whiteSpace=wrap;html=1;dashed=1;dashPattern=1 2;" vertex="1" parent="1">
          <mxGeometry x="-110" y="420" width="220" height="80" as="geometry" />
        </mxCell>
        <mxCell id="r9jfM2l-3MMvhzcXFDlq-50" value="[命中灰度圈人]" style="text;html=1;align=center;verticalAlign=middle;whiteSpace=wrap;rounded=0;" vertex="1" parent="1">
          <mxGeometry x="-40" y="260" width="100" height="30" as="geometry" />
        </mxCell>
        <mxCell id="r9jfM2l-3MMvhzcXFDlq-51" value="加载对应泳道的灰度页面及数据" style="text;html=1;align=center;verticalAlign=middle;whiteSpace=wrap;rounded=0;" vertex="1" parent="1">
          <mxGeometry x="-60" y="300" width="140" height="30" as="geometry" />
        </mxCell>
        <mxCell id="r9jfM2l-3MMvhzcXFDlq-52" value="[未命中灰度圈人]" style="text;html=1;align=center;verticalAlign=middle;whiteSpace=wrap;rounded=0;" vertex="1" parent="1">
          <mxGeometry x="-50" y="340" width="100" height="30" as="geometry" />
        </mxCell>
        <mxCell id="r9jfM2l-3MMvhzcXFDlq-54" value="加载基线页面及数据" style="text;html=1;align=center;verticalAlign=middle;whiteSpace=wrap;rounded=0;" vertex="1" parent="1">
          <mxGeometry x="-70" y="380" width="140" height="30" as="geometry" />
        </mxCell>
        <mxCell id="r9jfM2l-3MMvhzcXFDlq-55" value="[接口超时&amp;amp;异常]" style="text;html=1;align=center;verticalAlign=middle;whiteSpace=wrap;rounded=0;" vertex="1" parent="1">
          <mxGeometry x="-50" y="420" width="100" height="30" as="geometry" />
        </mxCell>
        <mxCell id="r9jfM2l-3MMvhzcXFDlq-56" value="加载基线页面及数据" style="text;html=1;align=center;verticalAlign=middle;whiteSpace=wrap;rounded=0;" vertex="1" parent="1">
          <mxGeometry x="-70" y="460" width="140" height="30" as="geometry" />
        </mxCell>
        <mxCell id="r9jfM2l-3MMvhzcXFDlq-57" value="" style="endArrow=classic;html=1;rounded=0;exitX=0.255;exitY=0.508;exitDx=0;exitDy=0;exitPerimeter=0;" edge="1" parent="1">
          <mxGeometry relative="1" as="geometry">
            <mxPoint x="110.10000000000014" y="405.08799999999997" as="sourcePoint" />
            <mxPoint x="735" y="403.95000000000005" as="targetPoint" />
          </mxGeometry>
        </mxCell>
        <mxCell id="r9jfM2l-3MMvhzcXFDlq-58" value="header: 泳道标识" style="edgeLabel;resizable=0;html=1;;align=center;verticalAlign=middle;" connectable="0" vertex="1" parent="r9jfM2l-3MMvhzcXFDlq-57">
          <mxGeometry relative="1" as="geometry">
            <mxPoint x="620" y="150" as="offset" />
          </mxGeometry>
        </mxCell>
        <mxCell id="r9jfM2l-3MMvhzcXFDlq-63" value="携带泳道标识" style="edgeLabel;html=1;align=center;verticalAlign=middle;resizable=0;points=[];" vertex="1" connectable="0" parent="r9jfM2l-3MMvhzcXFDlq-57">
          <mxGeometry x="-0.1742" y="1" relative="1" as="geometry">
            <mxPoint as="offset" />
          </mxGeometry>
        </mxCell>
        <mxCell id="r9jfM2l-3MMvhzcXFDlq-60" value="" style="rounded=0;whiteSpace=wrap;html=1;dashed=1;dashPattern=1 2;" vertex="1" parent="1">
          <mxGeometry x="530" y="420" width="210" height="70" as="geometry" />
        </mxCell>
        <mxCell id="r9jfM2l-3MMvhzcXFDlq-64" value="alt" style="text;html=1;align=center;verticalAlign=middle;whiteSpace=wrap;rounded=1;fillColor=#E6D0DE;" vertex="1" parent="1">
          <mxGeometry x="530" y="420" width="60" height="30" as="geometry" />
        </mxCell>
        <mxCell id="r9jfM2l-3MMvhzcXFDlq-65" value="[存在灰度标识]" style="text;html=1;align=center;verticalAlign=middle;whiteSpace=wrap;rounded=0;" vertex="1" parent="1">
          <mxGeometry x="600" y="420" width="100" height="30" as="geometry" />
        </mxCell>
        <mxCell id="r9jfM2l-3MMvhzcXFDlq-66" value="路由到灰度服务" style="text;html=1;align=center;verticalAlign=middle;whiteSpace=wrap;rounded=0;" vertex="1" parent="1">
          <mxGeometry x="581" y="458" width="140" height="30" as="geometry" />
        </mxCell>
        <mxCell id="r9jfM2l-3MMvhzcXFDlq-67" value="" style="rounded=0;whiteSpace=wrap;html=1;dashed=1;dashPattern=1 2;" vertex="1" parent="1">
          <mxGeometry x="530" y="490" width="210" height="70" as="geometry" />
        </mxCell>
        <mxCell id="r9jfM2l-3MMvhzcXFDlq-68" value="[不存在灰度标识]" style="text;html=1;align=center;verticalAlign=middle;whiteSpace=wrap;rounded=0;" vertex="1" parent="1">
          <mxGeometry x="600" y="490" width="100" height="30" as="geometry" />
        </mxCell>
        <mxCell id="r9jfM2l-3MMvhzcXFDlq-69" value="路由到基线服务" style="text;html=1;align=center;verticalAlign=middle;whiteSpace=wrap;rounded=0;" vertex="1" parent="1">
          <mxGeometry x="580" y="520" width="140" height="30" as="geometry" />
        </mxCell>
      </root>
    </mxGraphModel>
  </diagram>
</mxfile>
